<?xml version="1.0" standalone="no"?>
<!DOCTYPE svg PUBLIC "-//W3C//DTD SVG 20010904//EN"
 "http://www.w3.org/TR/2001/REC-SVG-20010904/DTD/svg10.dtd">
<svg version="1.0" xmlns="http://www.w3.org/2000/svg"
 width="200.000000pt" height="200.000000pt" viewBox="0 0 200.000000 200.000000"
 preserveAspectRatio="xMidYMid meet">
<metadata>
Created by potrace 1.14, written by Peter Selinger 2001-2017
</metadata>
<g transform="translate(0.000000,200.000000) scale(0.100000,-0.100000)"
fill="#000000" stroke="none">
<path d="M878 1995 c-2 -1 -28 -5 -58 -9 -176 -19 -266 -68 -291 -159 -9 -33
-15 -197 -10 -264 1 -10 56 -13 241 -13 l240 0 0 -29 0 -30 -372 -3 c-372 -3
-373 -3 -422 -27 -98 -48 -152 -128 -182 -271 -20 -99 -23 -257 -5 -345 33
-162 77 -244 157 -291 44 -26 55 -28 163 -28 l116 -1 2 118 c2 142 15 203 56
259 41 57 62 74 127 106 l55 26 295 1 c227 1 304 4 333 15 20 8 37 18 37 22 0
4 6 8 13 8 15 0 46 34 78 85 22 37 24 49 24 177 0 76 3 138 7 138 3 0 4 8 2
18 -2 9 -5 80 -7 157 -2 113 -6 147 -21 175 -33 60 -109 123 -167 136 -45 10
-56 12 -99 19 -42 7 -306 16 -312 10z"/>
<path d="M1538 1348 c-3 -120 -8 -150 -26 -189 -31 -67 -88 -124 -157 -155
l-60 -28 -295 -2 c-328 -2 -340 -4 -407 -70 -71 -71 -75 -94 -75 -393 0 -244
1 -270 20 -312 49 -113 235 -192 452 -193 231 0 414 73 468 186 16 35 20 65
20 158 l1 115 -243 -2 -243 -2 6 31 6 31 390 1 c435 1 424 0 484 73 28 33 76
137 88 188 2 11 5 25 7 30 46 165 8 450 -77 578 -50 74 -103 95 -243 97 l-112
1 -4 -143z"/>
</g>
</svg>
