<?xml version="1.0" standalone="no"?>
<!DOCTYPE svg PUBLIC "-//W3C//DTD SVG 20010904//EN"
 "http://www.w3.org/TR/2001/REC-SVG-20010904/DTD/svg10.dtd">
<svg version="1.0" xmlns="http://www.w3.org/2000/svg"
 width="2022.000000pt" height="2022.000000pt" viewBox="0 0 2022.000000 2022.000000"
 preserveAspectRatio="xMidYMid meet">
<metadata>
Created by potrace 1.14, written by Peter Selinger 2001-2017
</metadata>
<g transform="translate(0.000000,2022.000000) scale(0.100000,-0.100000)"
fill="#000000" stroke="none">
<path d="M9885 19703 c-1213 -41 -2400 -304 -3520 -780 -416 -177 -966 -463
-1351 -704 -1385 -867 -2492 -2017 -3307 -3434 -134 -234 -376 -718 -479 -960
-617 -1443 -890 -2966 -798 -4450 96 -1544 561 -3040 1362 -4385 77 -129 399
-622 404 -617 1 1 -9 52 -21 112 -94 444 -91 1117 6 1790 162 1124 491 2359
966 3634 828 2224 2079 4500 3487 6346 404 529 750 884 1068 1092 416 273 904
323 1294 133 246 -119 458 -339 599 -620 266 -528 353 -1384 295 -2880 -24
-604 -64 -1236 -160 -2520 -111 -1486 -169 -2434 -158 -2583 l3 -47 70 46
c208 139 557 415 839 663 507 446 1224 1171 1787 1806 671 757 1255 1505 1754
2245 426 633 743 955 1100 1120 172 80 312 111 490 111 533 0 960 -440 1185
-1219 256 -892 332 -2236 210 -3742 -79 -964 -249 -1937 -464 -2645 -55 -181
-105 -321 -106 -298 0 7 9 84 20 170 53 425 71 746 77 1393 10 983 -37 1803
-153 2690 -153 1173 -387 2050 -654 2448 -32 48 -67 95 -79 106 -20 18 -21 18
-59 -13 -146 -115 -318 -358 -527 -746 -376 -696 -799 -1374 -1267 -2028 -984
-1375 -2233 -2736 -3133 -3412 -592 -445 -1110 -665 -1565 -665 -220 0 -387
38 -570 130 -366 185 -601 510 -695 967 -41 196 -48 353 -41 864 13 943 43
1498 181 3324 82 1080 115 1598 145 2240 15 315 24 1044 14 1082 l-9 33 -136
-158 c-1103 -1273 -2237 -2903 -3231 -4647 -1184 -2075 -2068 -4198 -2292
-5501 -85 -489 -80 -901 13 -1168 38 -108 333 -451 730 -847 470 -469 852
-782 1391 -1140 415 -275 693 -436 1110 -643 1799 -892 3888 -1191 5950 -850
2647 437 4987 1852 6507 3937 720 987 1218 2016 1527 3158 371 1369 425 2831
155 4219 -317 1626 -1066 3146 -2187 4438 -1588 1830 -3857 3035 -6282 3336
-483 60 -1026 85 -1495 69z m-3765 -13572 c338 -89 601 -373 665 -716 13 -67
16 -121 12 -210 -11 -254 -99 -448 -284 -626 -98 -95 -196 -157 -312 -199
-115 -42 -200 -53 -347 -48 -111 4 -142 10 -224 37 -174 59 -320 161 -433 302
-243 303 -272 709 -77 1042 60 101 230 268 333 326 90 50 218 96 309 110 92
14 270 5 358 -18z m11440 0 c338 -89 601 -373 665 -716 13 -67 16 -121 12
-210 -11 -254 -99 -448 -284 -626 -98 -95 -196 -157 -312 -199 -115 -42 -200
-53 -347 -48 -111 4 -142 10 -224 37 -174 59 -320 161 -433 302 -243 303 -272
709 -77 1042 60 101 230 268 333 326 90 50 218 96 309 110 92 14 270 5 358
-18z m-6608 2 c25 -29 828 -1683 828 -1706 0 -39 -28 -57 -91 -57 -31 0 -65 3
-73 6 -9 4 -83 143 -165 310 l-149 304 -394 0 -393 0 -144 -297 c-79 -164
-151 -304 -159 -310 -9 -7 -43 -13 -76 -13 -66 0 -96 17 -96 55 0 25 802 1679
827 1708 9 9 28 17 43 17 15 0 34 -8 42 -17z m-3888 1 c8 -3 261 -312 563
-686 l548 -680 5 663 5 663 25 14 c32 17 105 10 130 -13 20 -18 20 -37 20
-863 0 -773 -1 -847 -17 -864 -21 -24 -67 -23 -90 1 -10 11 -256 316 -548 678
l-530 659 -5 -647 c-6 -746 3 -689 -101 -689 -97 0 -89 -78 -89 887 0 830 0
843 20 863 21 21 37 24 64 14z m2525 -13 c81 -25 138 -60 189 -115 l42 -46 0
-80 c0 -67 -3 -83 -20 -100 -11 -11 -23 -20 -27 -20 -32 1 -57 19 -83 61 -77
119 -260 174 -366 109 -49 -31 -75 -73 -81 -133 -13 -127 47 -201 272 -337
277 -168 396 -276 445 -406 96 -258 -3 -539 -231 -651 -118 -58 -267 -78 -400
-53 -119 23 -255 110 -331 214 -25 35 -28 47 -28 118 0 86 17 118 63 118 27 0
43 -16 81 -83 59 -103 157 -168 284 -187 166 -26 313 43 379 178 24 49 28 69
28 143 -1 109 -30 174 -112 249 -51 47 -103 83 -384 264 -106 69 -191 157
-226 233 -35 75 -44 211 -19 295 30 105 117 191 231 227 81 27 212 27 294 2z
m2835 13 c8 -3 261 -312 563 -686 l548 -680 5 663 5 663 25 14 c32 17 105 10
130 -13 20 -18 20 -37 20 -863 0 -773 -1 -847 -17 -864 -21 -24 -67 -23 -90 1
-10 11 -256 316 -548 678 l-530 659 -5 -647 c-6 -746 3 -689 -101 -689 -97 0
-89 -78 -89 887 0 830 0 843 20 863 21 21 37 24 64 14z m-9172 -32 c8 -6 167
-326 354 -711 186 -385 342 -696 346 -693 3 4 158 318 343 697 186 380 344
697 352 705 10 11 35 15 89 15 126 0 114 92 114 -876 0 -816 0 -829 -20 -849
-15 -15 -33 -20 -78 -20 -106 0 -97 -64 -100 667 l-4 638 -331 -665 c-315
-631 -333 -665 -360 -668 -16 -2 -36 3 -45 12 -10 8 -161 312 -337 675 l-320
659 -5 -645 c-6 -737 4 -673 -100 -673 -105 0 -95 -90 -98 860 -2 581 1 837 8
851 6 11 21 24 33 29 29 13 141 7 159 -8z m8833 -2 c13 -11 15 -110 15 -853 0
-961 9 -877 -92 -877 -45 0 -63 5 -78 20 -20 20 -20 33 -20 853 0 782 1 835
18 849 9 9 24 18 32 21 24 10 108 1 125 -13z m2651 -4 c20 -28 18 -124 -3
-148 -14 -16 -34 -18 -185 -18 l-168 0 0 -762 c0 -873 9 -798 -93 -798 -107 0
-97 -79 -97 797 l0 763 -169 0 -170 0 -20 26 c-36 45 -23 136 21 154 13 5 204
8 446 7 407 -2 424 -3 438 -21z m1507 13 c12 -7 25 -17 29 -23 4 -6 8 -291 8
-634 0 -684 -2 -714 -60 -840 -56 -121 -179 -221 -315 -257 -74 -19 -233 -19
-304 0 -79 21 -158 62 -207 110 -42 39 -44 45 -44 97 0 41 5 62 21 82 30 38
60 33 119 -19 66 -59 114 -82 198 -97 140 -24 265 20 329 116 68 100 67 91 71
719 l3 567 -182 0 c-217 0 -219 1 -219 90 0 56 12 83 40 93 31 11 491 7 513
-4z m-907 -963 c20 -28 18 -124 -3 -148 -15 -17 -40 -18 -379 -18 -420 0 -394
-6 -394 95 0 101 -20 96 403 93 342 -3 359 -4 373 -22z m-7006 -2101 l0 -445
-35 0 c-34 0 -35 1 -35 42 l0 41 -23 -21 c-12 -11 -48 -33 -81 -48 -50 -23
-68 -26 -126 -22 -110 8 -189 61 -243 162 -17 32 -22 58 -22 121 0 70 4 87 30
133 51 93 129 142 236 150 57 4 75 1 125 -22 33 -15 69 -37 81 -48 l23 -21 0
211 0 212 35 0 35 0 0 -445z m-640 321 c0 -3 -44 -41 -97 -85 -95 -80 -98 -81
-152 -81 -30 0 -51 3 -47 7 4 4 48 42 99 85 89 74 94 77 145 78 28 0 52 -2 52
-4z m5380 -111 l0 -105 75 0 75 0 0 -35 0 -35 -75 0 -75 0 0 -166 0 -166 34
-34 c22 -22 47 -35 75 -40 39 -6 41 -8 41 -40 0 -33 -2 -34 -37 -34 -46 0
-110 29 -140 61 -50 55 -53 77 -53 399 l0 300 40 0 40 0 0 -105z m660 70 c0
-29 -4 -35 -21 -35 -58 0 -129 -64 -129 -117 0 -22 4 -23 75 -23 l75 0 0 -35
0 -35 -75 0 -75 0 0 -240 0 -240 -40 0 -40 0 0 298 c0 268 2 301 19 337 33 71
107 124 174 125 36 0 37 -1 37 -35z m-5188 -2 c36 -33 11 -103 -37 -103 -35 0
-58 24 -58 60 0 54 55 79 95 43z m3690 0 c36 -33 11 -103 -37 -103 -35 0 -58
24 -58 60 0 54 55 79 95 43z m1140 0 c36 -33 11 -103 -37 -103 -35 0 -58 24
-58 60 0 54 55 79 95 43z m-6689 -177 c18 -7 45 -27 59 -44 l26 -31 23 26 c34
37 96 63 151 63 58 0 94 -13 132 -48 52 -49 56 -73 56 -302 l0 -210 -40 0 -40
0 0 210 0 210 -29 32 c-26 29 -35 33 -79 32 -34 0 -58 -7 -81 -23 -57 -41 -61
-60 -61 -271 l0 -190 -39 0 -40 0 -3 204 c-3 189 -5 207 -24 233 -49 66 -122
67 -186 3 l-38 -38 0 -201 0 -201 -40 0 -40 0 0 275 0 275 40 0 c34 0 40 -3
40 -22 0 -20 1 -20 19 -4 39 35 137 47 194 22z m907 -1 c48 -17 130 -79 130
-99 0 -7 -77 -86 -171 -175 -187 -180 -187 -179 -98 -202 37 -10 55 -10 93 1
49 14 122 71 145 114 22 40 31 31 31 -32 0 -53 -3 -61 -32 -89 -52 -48 -96
-66 -178 -71 -70 -4 -79 -2 -140 30 -105 54 -160 143 -160 258 0 79 19 127 73
186 78 85 200 117 307 79z m1421 0 c23 -9 57 -27 75 -40 18 -14 35 -25 38 -25
3 0 6 16 6 35 0 33 2 35 35 35 l35 0 0 -275 0 -275 -35 0 c-33 0 -35 2 -35 35
0 19 -2 35 -5 35 -3 0 -23 -13 -45 -29 -173 -125 -428 -7 -447 208 -19 204
185 364 378 296z m890 0 c23 -9 57 -27 75 -40 18 -14 35 -25 38 -25 3 0 6 16
6 35 0 33 2 35 35 35 l35 0 0 -275 0 -275 -35 0 c-33 0 -35 2 -35 35 0 19 -2
35 -5 35 -3 0 -23 -13 -45 -29 -173 -125 -428 -7 -447 208 -19 204 185 364
378 296z m533 -8 c23 -16 26 -23 26 -80 l0 -62 -35 42 c-39 45 -77 60 -118 44
-27 -10 -34 -32 -21 -65 4 -9 38 -35 78 -58 86 -50 124 -83 142 -125 31 -73 4
-168 -61 -212 -68 -46 -181 -39 -245 16 -29 24 -30 28 -30 106 l0 82 29 -62
c32 -67 56 -88 114 -98 73 -14 127 30 127 103 0 48 -24 74 -116 128 -85 50
-124 94 -124 140 0 82 56 127 151 121 31 -2 68 -11 83 -20z m390 0 c23 -16 26
-23 26 -80 l0 -62 -35 42 c-39 45 -77 60 -118 44 -27 -10 -34 -32 -21 -65 4
-9 38 -35 78 -58 86 -50 124 -83 142 -125 31 -73 4 -168 -61 -212 -68 -46
-181 -39 -245 16 -29 24 -30 28 -30 106 l0 82 29 -62 c32 -67 56 -88 114 -98
73 -14 127 30 127 103 0 48 -24 74 -116 128 -85 50 -124 94 -124 140 0 82 56
127 151 121 31 -2 68 -11 83 -20z m541 -5 c50 -25 119 -98 141 -149 9 -22 16
-65 16 -103 1 -115 -48 -203 -144 -256 -47 -26 -63 -29 -138 -29 -76 0 -91 3
-139 30 -220 122 -193 432 46 521 53 20 167 13 218 -14z m600 4 c28 -13 63
-37 78 -53 26 -28 28 -36 25 -94 l-3 -64 -34 54 c-49 76 -99 106 -175 106
-197 0 -292 -243 -144 -369 99 -85 233 -65 314 46 l39 53 3 -64 c4 -74 -3 -84
-81 -127 -46 -26 -62 -29 -137 -29 -73 0 -92 4 -136 27 -115 60 -178 202 -145
323 45 169 242 264 396 191z m746 9 c23 -9 57 -27 75 -40 18 -14 35 -25 38
-25 3 0 6 16 6 35 0 33 2 35 35 35 l35 0 0 -275 0 -275 -35 0 c-33 0 -35 2
-35 35 0 19 -2 35 -5 35 -3 0 -23 -13 -45 -29 -173 -125 -428 -7 -447 208 -19
204 185 364 378 296z m-4171 -270 l0 -275 -35 0 -35 0 0 275 0 275 35 0 35 0
0 -275z m3690 0 l0 -275 -35 0 -35 0 0 275 0 275 35 0 35 0 0 -275z m1140 0
l0 -275 -35 0 -35 0 0 275 0 275 35 0 35 0 0 -275z"/>
<path d="M5722 5950 c-199 -53 -365 -192 -461 -385 -53 -106 -73 -195 -73
-325 1 -278 149 -523 391 -649 118 -61 178 -75 316 -76 106 0 130 3 209 29
234 77 416 271 482 518 24 86 24 271 1 358 -9 36 -38 107 -63 159 -80 162
-241 303 -414 362 -95 32 -287 37 -388 9z"/>
<path d="M17162 5950 c-199 -53 -365 -192 -461 -385 -53 -106 -73 -195 -73
-325 1 -278 149 -523 391 -649 118 -61 178 -75 316 -76 106 0 130 3 209 29
234 77 416 271 482 518 24 86 24 271 1 358 -9 36 -38 107 -63 159 -80 162
-241 303 -414 362 -95 32 -287 37 -388 9z"/>
<path d="M10871 5728 c-16 -35 -81 -170 -145 -302 -64 -131 -116 -242 -116
-247 0 -5 135 -9 300 -9 165 0 300 2 300 3 0 10 -300 617 -305 617 -3 0 -19
-28 -34 -62z"/>
<path d="M7988 3076 c-88 -32 -139 -94 -146 -180 -6 -72 12 -121 63 -172 79
-79 193 -82 276 -7 100 91 104 209 8 305 -64 64 -126 81 -201 54z"/>
<path d="M7440 3081 c-116 -38 -175 -135 -150 -247 22 -99 20 -100 185 66
l148 148 -32 17 c-38 19 -116 28 -151 16z"/>
<path d="M8859 3077 c-58 -22 -93 -52 -123 -107 -24 -44 -28 -60 -24 -110 15
-204 282 -268 385 -92 78 132 -7 300 -159 317 -24 3 -59 -1 -79 -8z"/>
<path d="M9749 3077 c-58 -22 -93 -52 -123 -107 -24 -44 -28 -60 -24 -110 15
-204 282 -268 385 -92 78 132 -7 300 -159 317 -24 3 -59 -1 -79 -8z"/>
<path d="M11178 3076 c-89 -33 -139 -94 -146 -180 -6 -72 12 -121 63 -172 73
-72 177 -81 266 -21 84 56 110 187 56 279 -48 83 -156 125 -239 94z"/>
<path d="M12559 3077 c-58 -22 -93 -52 -123 -107 -24 -44 -28 -60 -24 -110 15
-204 282 -268 385 -92 78 132 -7 300 -159 317 -24 3 -59 -1 -79 -8z"/>
</g>
</svg>
